<svg id="visual" viewBox="0 0 1920 1080" width="1920" height="1080" xmlns="http://www.w3.org/2000/svg" xmlns:xlink="http://www.w3.org/1999/xlink" version="1.1"><rect x="0" y="0" width="1920" height="1080" fill="#F5F7FB"></rect><defs><linearGradient id="grad1_0" x1="43.8%" y1="0%" x2="100%" y2="100%"><stop offset="14.444444444444446%" stop-color="#deebf8" stop-opacity="1"></stop><stop offset="85.55555555555554%" stop-color="#deebf8" stop-opacity="1"></stop></linearGradient></defs><defs><linearGradient id="grad1_1" x1="43.8%" y1="0%" x2="100%" y2="100%"><stop offset="14.444444444444446%" stop-color="#deebf8" stop-opacity="1"></stop><stop offset="85.55555555555554%" stop-color="#f5f7fb" stop-opacity="1"></stop></linearGradient></defs><defs><linearGradient id="grad2_0" x1="0%" y1="0%" x2="56.3%" y2="100%"><stop offset="14.444444444444446%" stop-color="#deebf8" stop-opacity="1"></stop><stop offset="85.55555555555554%" stop-color="#deebf8" stop-opacity="1"></stop></linearGradient></defs><defs><linearGradient id="grad2_1" x1="0%" y1="0%" x2="56.3%" y2="100%"><stop offset="14.444444444444446%" stop-color="#f5f7fb" stop-opacity="1"></stop><stop offset="85.55555555555554%" stop-color="#deebf8" stop-opacity="1"></stop></linearGradient></defs><g transform="translate(1920, 0)"><path d="M0 586C-91.4 602.9 -182.8 619.7 -239.9 579.3C-297.1 538.8 -320.1 441 -382.5 382.5C-445 324 -546.9 304.8 -597.8 247.6C-648.6 190.4 -648.3 95.2 -648 0L0 0Z" fill="#eaf1fa"></path><path d="M0 293C-45.7 301.4 -91.4 309.9 -120 289.6C-148.6 269.4 -160 220.5 -191.3 191.3C-222.5 162 -273.5 152.4 -298.9 123.8C-324.3 95.2 -324.1 47.6 -324 0L0 0Z" fill="#deebf8"></path></g><g transform="translate(0, 1080)"><path d="M0 -529C93 -576.6 185.9 -624.1 246.8 -595.9C307.7 -567.7 336.6 -463.7 398.8 -398.8C461 -333.9 556.6 -307.9 598.7 -248C640.8 -188 629.4 -94 618 0L0 0Z" fill="#eaf1fa"></path><path d="M0 -264.5C46.5 -288.3 93 -312.1 123.4 -298C153.9 -283.9 168.3 -231.9 199.4 -199.4C230.5 -166.9 278.3 -154 299.3 -124C320.4 -94 314.7 -47 309 0L0 0Z" fill="#deebf8"></path></g></svg>